<?xml version="1.0" encoding="UTF-8" standalone="no"?>
<!-- Generator: Adobe Illustrator 16.0.0, SVG Export Plug-In . SVG Version: 6.00 Build 0)  -->

<svg
   xmlns:dc="http://purl.org/dc/elements/1.1/"
   xmlns:cc="http://creativecommons.org/ns#"
   xmlns:rdf="http://www.w3.org/1999/02/22-rdf-syntax-ns#"
   xmlns:svg="http://www.w3.org/2000/svg"
   xmlns="http://www.w3.org/2000/svg"
   xmlns:sodipodi="http://sodipodi.sourceforge.net/DTD/sodipodi-0.dtd"
   xmlns:inkscape="http://www.inkscape.org/namespaces/inkscape"
   version="1.1"
   id="Layer_1"
   x="0px"
   y="0px"
   width="86.796272"
   height="86.796272"
   viewBox="0 0 86.796269 86.796273"
   enable-background="new 0 0 612 792"
   xml:space="preserve"
   inkscape:version="0.48.2 r9819"
   sodipodi:docname="The X-Files logo.svg"><metadata
   id="metadata15"><rdf:RDF><cc:Work
       rdf:about=""><dc:format>image/svg+xml</dc:format><dc:type
         rdf:resource="http://purl.org/dc/dcmitype/StillImage" /><dc:title></dc:title></cc:Work></rdf:RDF></metadata><defs
   id="defs13">
	
	
	
</defs><sodipodi:namedview
   pagecolor="#ffffff"
   bordercolor="#666666"
   borderopacity="1"
   objecttolerance="10"
   gridtolerance="10"
   guidetolerance="10"
   inkscape:pageopacity="0"
   inkscape:pageshadow="2"
   inkscape:window-width="1600"
   inkscape:window-height="837"
   id="namedview11"
   showgrid="false"
   fit-margin-top="0"
   fit-margin-left="0"
   fit-margin-right="0"
   fit-margin-bottom="0"
   inkscape:zoom="1"
   inkscape:cx="76.763747"
   inkscape:cy="-4.5450279"
   inkscape:window-x="-8"
   inkscape:window-y="-8"
   inkscape:window-maximized="1"
   inkscape:current-layer="Layer_1" />
<path
   style="fill:#fe0000;fill-opacity:1;fill-rule:evenodd"
   d="M 43.398114,0 C 19.279484,0 -1.6453631e-5,19.2795 -1.6453631e-5,43.39813 c 0,24.01258 19.279500453631,43.39814 43.398130453631,43.39814 24.00753,0 43.39814,-19.3906 43.39814,-43.39814 C 86.796254,19.2795 67.405644,0 43.398114,0 z m 0,3.62967 c 21.98755,0 39.76846,17.66982 39.76846,39.76846 0,21.98755 -17.77586,39.76847 -39.76846,39.76847 C 21.299464,83.1666 3.6296435,65.38568 3.6296435,43.39813 3.6236435,21.29949 21.299464,3.62967 43.398114,3.62967 z"
   id="path9"
   inkscape:connector-curvature="0" /><path
   style="fill:#000000;fill-rule:evenodd"
   d="m 35.453264,62.84555 3.59052,-22.09865 -3.59052,-21.19975 h 4.3783 l 3.14108,17.38703 2.80779,-17.38703 h 4.60051 l -3.36328,21.19975 4.15108,22.09865 h -4.60052 l -3.59052,-19.06867 -3.02999,19.06867 h -4.49445 l 0,0 0,0 0,0 z"
   id="path3028"
   inkscape:connector-curvature="0" />
</svg>